<svg width="90" height="90" viewBox="0 0 90 90" fill="none" xmlns="http://www.w3.org/2000/svg">
<path d="M9.87701 24.5L12 22.6614L14.123 24.5H9.87701Z" stroke="black"/>
<path d="M36.277 24.5L38.4 22.6614L40.523 24.5H36.277Z" stroke="black"/>
<path opacity="0.8" d="M62.677 24.5L64.8 22.6614L66.923 24.5H62.677Z" stroke="black"/>
<path d="M49.477 24.5L51.6 22.6614L53.723 24.5H49.477Z" stroke="black"/>
<path d="M23.077 24.5L25.2 22.6614L27.323 24.5H23.077Z" stroke="black"/>
<path d="M14.123 65.5L12 67.3386L9.87701 65.5H14.123Z" stroke="black"/>
<path d="M40.523 65.5L38.4 67.3386L36.277 65.5H40.523Z" stroke="black"/>
<path opacity="0.8" d="M66.923 65.5L64.8 67.3386L62.677 65.5H66.923Z" stroke="black"/>
<path d="M53.723 65.5L51.6 67.3386L49.477 65.5H53.723Z" stroke="black"/>
<path d="M27.323 65.5L25.2 67.3386L23.077 65.5H27.323Z" stroke="black"/>
<rect x="0.5" y="0.5" width="89" height="89" stroke="black"/>
<circle cx="79" cy="11" r="2" stroke="black"/>
<path d="M9.23571 38H14.7643L15.3786 38.7L14.7643 39.4H9.23571L8.62143 38.7L9.23571 38Z" fill="black"/>
<path d="M7.7 44.3V39.4L8.31429 38.7L8.92857 39.4V44.3L8.31429 45L7.7 44.3Z" fill="black"/>
<path d="M7.7 50.6V45.7L8.31429 45L8.92857 45.7V50.6L8.31429 51.3L7.7 50.6Z" fill="black"/>
<path d="M15.0714 44.3V39.4L15.6857 38.7L16.3 39.4V44.3L15.6857 45L15.0714 44.3Z" fill="black"/>
<path d="M15.0714 50.6V45.7L15.6857 45L16.3 45.7V50.6L15.6857 51.3L15.0714 50.6Z" fill="black"/>
<path d="M9.23571 44.3H11.0786L11.6929 45L11.0786 45.7H9.23571L8.62143 45L9.23571 44.3Z" fill="black"/>
<path d="M12.9738 44.3H14.6405L15.3071 45L14.6405 45.7H12.9738L12.3071 45L12.9738 44.3Z" fill="black"/>
<path d="M22.4357 38H27.9643L28.5786 38.7L27.9643 39.4H22.4357L21.8214 38.7L22.4357 38Z" fill="black"/>
<path d="M20.9 44.3V39.4L21.5143 38.7L22.1286 39.4V44.3L21.5143 45L20.9 44.3Z" fill="black"/>
<path d="M20.9 50.6V45.7L21.5143 45L22.1286 45.7V50.6L21.5143 51.3L20.9 50.6Z" fill="black"/>
<path d="M28.2714 44.3V39.4L28.8857 38.7L29.5 39.4V44.3L28.8857 45L28.2714 44.3Z" fill="black"/>
<path d="M28.2714 50.6V45.7L28.8857 45L29.5 45.7V50.6L28.8857 51.3L28.2714 50.6Z" fill="black"/>
<path d="M22.4357 44.3H24.2786L24.8929 45L24.2786 45.7H22.4357L21.8214 45L22.4357 44.3Z" fill="black"/>
<path d="M26.1738 44.3H27.8405L28.5071 45L27.8405 45.7H26.1738L25.5071 45L26.1738 44.3Z" fill="black"/>
<path d="M35.6357 38H41.1643L41.7786 38.7L41.1643 39.4H35.6357L35.0214 38.7L35.6357 38Z" fill="black"/>
<path d="M34.1 44.3V39.4L34.7143 38.7L35.3286 39.4V44.3L34.7143 45L34.1 44.3Z" fill="black"/>
<path d="M34.1 50.6V45.7L34.7143 45L35.3286 45.7V50.6L34.7143 51.3L34.1 50.6Z" fill="black"/>
<path d="M41.4714 44.3V39.4L42.0857 38.7L42.7 39.4V44.3L42.0857 45L41.4714 44.3Z" fill="black"/>
<path d="M41.4714 50.6V45.7L42.0857 45L42.7 45.7V50.6L42.0857 51.3L41.4714 50.6Z" fill="black"/>
<path d="M35.6357 44.3H37.4786L38.0929 45L37.4786 45.7H35.6357L35.0214 45L35.6357 44.3Z" fill="black"/>
<path d="M39.3738 44.3H41.0405L41.7071 45L41.0405 45.7H39.3738L38.7071 45L39.3738 44.3Z" fill="black"/>
<path d="M48.8357 38H54.3643L54.9786 38.7L54.3643 39.4H48.8357L48.2214 38.7L48.8357 38Z" fill="black"/>
<path d="M47.3 44.3V39.4L47.9143 38.7L48.5286 39.4V44.3L47.9143 45L47.3 44.3Z" fill="black"/>
<path d="M47.3 50.6V45.7L47.9143 45L48.5286 45.7V50.6L47.9143 51.3L47.3 50.6Z" fill="black"/>
<path d="M54.6714 44.3V39.4L55.2857 38.7L55.9 39.4V44.3L55.2857 45L54.6714 44.3Z" fill="black"/>
<path d="M54.6714 50.6V45.7L55.2857 45L55.9 45.7V50.6L55.2857 51.3L54.6714 50.6Z" fill="black"/>
<path d="M48.8357 44.3H50.6786L51.2929 45L50.6786 45.7H48.8357L48.2214 45L48.8357 44.3Z" fill="black"/>
<path d="M52.5738 44.3H54.2405L54.9071 45L54.2405 45.7H52.5738L51.9071 45L52.5738 44.3Z" fill="black"/>
<path d="M62.0357 38H67.5643L68.1786 38.7L67.5643 39.4H62.0357L61.4214 38.7L62.0357 38Z" fill="black"/>
<path d="M60.5 44.3V39.4L61.1143 38.7L61.7286 39.4V44.3L61.1143 45L60.5 44.3Z" fill="black"/>
<path d="M60.5 50.6V45.7L61.1143 45L61.7286 45.7V50.6L61.1143 51.3L60.5 50.6Z" fill="black"/>
<path d="M67.8714 44.3V39.4L68.4857 38.7L69.1 39.4V44.3L68.4857 45L67.8714 44.3Z" fill="black"/>
<path d="M67.8714 50.6V45.7L68.4857 45L69.1 45.7V50.6L68.4857 51.3L67.8714 50.6Z" fill="black"/>
<path d="M62.0357 44.3H63.8786L64.4929 45L63.8786 45.7H62.0357L61.4214 45L62.0357 44.3Z" fill="black"/>
<path d="M65.7738 44.3H67.4405L68.1071 45L67.4405 45.7H65.7738L65.1071 45L65.7738 44.3Z" fill="black"/>
<rect x="26.9" y="76.4" width="23" height="9" stroke="black"/>
<mask id="path-49-outside-1_3_123" maskUnits="userSpaceOnUse" x="29" y="78.5" width="20" height="5" fill="black">
<rect fill="white" x="29" y="78.5" width="20" height="5"/>
<path d="M31.429 79.7727C31.4077 79.5928 31.3213 79.4531 31.1697 79.3537C31.0182 79.2543 30.8324 79.2045 30.6122 79.2045C30.4512 79.2045 30.3104 79.2306 30.1896 79.2827C30.0701 79.3348 29.9766 79.4064 29.9091 79.4975C29.8428 79.5887 29.8097 79.6922 29.8097 79.8082C29.8097 79.9053 29.8327 79.9888 29.8789 80.0586C29.9263 80.1272 29.9866 80.1847 30.06 80.2308C30.1334 80.2758 30.2103 80.3131 30.2908 80.3427C30.3713 80.3711 30.4453 80.3942 30.5128 80.4119L30.8821 80.5114C30.9768 80.5362 31.0821 80.5705 31.1982 80.6143C31.3153 80.6581 31.4272 80.7179 31.5337 80.7937C31.6415 80.8683 31.7302 80.9641 31.8001 81.0813C31.8699 81.1985 31.9048 81.3423 31.9048 81.5128C31.9048 81.7093 31.8533 81.8868 31.7504 82.0455C31.6486 82.2041 31.4994 82.3301 31.3029 82.4237C31.1076 82.5172 30.8703 82.5639 30.5909 82.5639C30.3305 82.5639 30.105 82.5219 29.9144 82.4379C29.725 82.3538 29.5759 82.2366 29.467 82.0863C29.3593 81.936 29.2983 81.7614 29.2841 81.5625H29.7386C29.7505 81.6998 29.7966 81.8134 29.8771 81.9034C29.9588 81.9922 30.0618 82.0585 30.1861 82.1023C30.3116 82.1449 30.4465 82.1662 30.5909 82.1662C30.759 82.1662 30.9099 82.139 31.0437 82.0845C31.1774 82.0289 31.2834 81.9519 31.3615 81.8537C31.4396 81.7543 31.4787 81.6383 31.4787 81.5057C31.4787 81.3849 31.445 81.2867 31.3775 81.2109C31.31 81.1352 31.2212 81.0736 31.1112 81.0263C31.0011 80.9789 30.8821 80.9375 30.7543 80.902L30.3068 80.7741C30.0227 80.6925 29.7978 80.5759 29.6321 80.4244C29.4664 80.2728 29.3835 80.0746 29.3835 79.8295C29.3835 79.6259 29.4386 79.4484 29.5487 79.2969C29.6599 79.1442 29.8091 79.0258 29.9961 78.9418C30.1843 78.8565 30.3944 78.8139 30.6264 78.8139C30.8608 78.8139 31.0691 78.8559 31.2514 78.94C31.4337 79.0228 31.5781 79.1365 31.6847 79.2809C31.7924 79.4253 31.8492 79.5893 31.8551 79.7727H31.429ZM35.0152 78.8636H35.4555V81.2713C35.4555 81.5199 35.3969 81.7418 35.2797 81.9371C35.1637 82.1313 34.9998 82.2846 34.7879 82.397C34.576 82.5083 34.3274 82.5639 34.0422 82.5639C33.7569 82.5639 33.5083 82.5083 33.2964 82.397C33.0845 82.2846 32.92 82.1313 32.8028 81.9371C32.6868 81.7418 32.6288 81.5199 32.6288 81.2713V78.8636H33.0692V81.2358C33.0692 81.4134 33.1082 81.5714 33.1863 81.7099C33.2645 81.8472 33.3757 81.9555 33.5202 82.0348C33.6657 82.1129 33.8398 82.152 34.0422 82.152C34.2446 82.152 34.4186 82.1129 34.5642 82.0348C34.7098 81.9555 34.8211 81.8472 34.898 81.7099C34.9761 81.5714 35.0152 81.4134 35.0152 81.2358V78.8636ZM36.3349 82.5V78.8636H37.6062C37.8595 78.8636 38.0684 78.9074 38.233 78.995C38.3975 79.0814 38.52 79.198 38.6005 79.3448C38.681 79.4904 38.7212 79.652 38.7212 79.8295C38.7212 79.9858 38.6934 80.1148 38.6378 80.2166C38.5833 80.3184 38.5111 80.3989 38.4212 80.4581C38.3324 80.5173 38.2359 80.5611 38.1317 80.5895V80.625C38.243 80.6321 38.3549 80.6712 38.4673 80.7422C38.5798 80.8132 38.6739 80.915 38.7496 81.0476C38.8254 81.1802 38.8633 81.3423 38.8633 81.5341C38.8633 81.7164 38.8219 81.8803 38.739 82.0259C38.6561 82.1715 38.5253 82.2869 38.3466 82.3722C38.1679 82.4574 37.9353 82.5 37.6488 82.5H36.3349ZM36.7752 82.1094H37.6488C37.9364 82.1094 38.1406 82.0537 38.2614 81.9425C38.3833 81.83 38.4442 81.6939 38.4442 81.5341C38.4442 81.411 38.4129 81.2973 38.3501 81.1932C38.2874 81.0878 38.198 81.0038 38.082 80.9411C37.966 80.8771 37.8287 80.8452 37.6701 80.8452H36.7752V82.1094ZM36.7752 80.4616H37.592C37.7246 80.4616 37.8441 80.4356 37.9506 80.3835C38.0584 80.3314 38.1436 80.258 38.2063 80.1634C38.2702 80.0687 38.3022 79.9574 38.3022 79.8295C38.3022 79.6697 38.2466 79.5342 38.1353 79.4229C38.024 79.3105 37.8477 79.2543 37.6062 79.2543H36.7752V80.4616ZM39.5868 78.8636H40.1124L41.3482 81.8821H41.3908L42.6266 78.8636H43.1522V82.5H42.7402V79.7372H42.7047L41.5684 82.5H41.1706L40.0343 79.7372H39.9988V82.5H39.5868V78.8636ZM44.4754 78.8636V82.5H44.0351V78.8636H44.4754ZM45.1594 79.2543V78.8636H47.8867V79.2543H46.7433V82.5H46.3029V79.2543H45.1594Z"/>
</mask>
<path d="M31.429 79.7727C31.4077 79.5928 31.3213 79.4531 31.1697 79.3537C31.0182 79.2543 30.8324 79.2045 30.6122 79.2045C30.4512 79.2045 30.3104 79.2306 30.1896 79.2827C30.0701 79.3348 29.9766 79.4064 29.9091 79.4975C29.8428 79.5887 29.8097 79.6922 29.8097 79.8082C29.8097 79.9053 29.8327 79.9888 29.8789 80.0586C29.9263 80.1272 29.9866 80.1847 30.06 80.2308C30.1334 80.2758 30.2103 80.3131 30.2908 80.3427C30.3713 80.3711 30.4453 80.3942 30.5128 80.4119L30.8821 80.5114C30.9768 80.5362 31.0821 80.5705 31.1982 80.6143C31.3153 80.6581 31.4272 80.7179 31.5337 80.7937C31.6415 80.8683 31.7302 80.9641 31.8001 81.0813C31.8699 81.1985 31.9048 81.3423 31.9048 81.5128C31.9048 81.7093 31.8533 81.8868 31.7504 82.0455C31.6486 82.2041 31.4994 82.3301 31.3029 82.4237C31.1076 82.5172 30.8703 82.5639 30.5909 82.5639C30.3305 82.5639 30.105 82.5219 29.9144 82.4379C29.725 82.3538 29.5759 82.2366 29.467 82.0863C29.3593 81.936 29.2983 81.7614 29.2841 81.5625H29.7386C29.7505 81.6998 29.7966 81.8134 29.8771 81.9034C29.9588 81.9922 30.0618 82.0585 30.1861 82.1023C30.3116 82.1449 30.4465 82.1662 30.5909 82.1662C30.759 82.1662 30.9099 82.139 31.0437 82.0845C31.1774 82.0289 31.2834 81.9519 31.3615 81.8537C31.4396 81.7543 31.4787 81.6383 31.4787 81.5057C31.4787 81.3849 31.445 81.2867 31.3775 81.2109C31.31 81.1352 31.2212 81.0736 31.1112 81.0263C31.0011 80.9789 30.8821 80.9375 30.7543 80.902L30.3068 80.7741C30.0227 80.6925 29.7978 80.5759 29.6321 80.4244C29.4664 80.2728 29.3835 80.0746 29.3835 79.8295C29.3835 79.6259 29.4386 79.4484 29.5487 79.2969C29.6599 79.1442 29.8091 79.0258 29.9961 78.9418C30.1843 78.8565 30.3944 78.8139 30.6264 78.8139C30.8608 78.8139 31.0691 78.8559 31.2514 78.94C31.4337 79.0228 31.5781 79.1365 31.6847 79.2809C31.7924 79.4253 31.8492 79.5893 31.8551 79.7727H31.429ZM35.0152 78.8636H35.4555V81.2713C35.4555 81.5199 35.3969 81.7418 35.2797 81.9371C35.1637 82.1313 34.9998 82.2846 34.7879 82.397C34.576 82.5083 34.3274 82.5639 34.0422 82.5639C33.7569 82.5639 33.5083 82.5083 33.2964 82.397C33.0845 82.2846 32.92 82.1313 32.8028 81.9371C32.6868 81.7418 32.6288 81.5199 32.6288 81.2713V78.8636H33.0692V81.2358C33.0692 81.4134 33.1082 81.5714 33.1863 81.7099C33.2645 81.8472 33.3757 81.9555 33.5202 82.0348C33.6657 82.1129 33.8398 82.152 34.0422 82.152C34.2446 82.152 34.4186 82.1129 34.5642 82.0348C34.7098 81.9555 34.8211 81.8472 34.898 81.7099C34.9761 81.5714 35.0152 81.4134 35.0152 81.2358V78.8636ZM36.3349 82.5V78.8636H37.6062C37.8595 78.8636 38.0684 78.9074 38.233 78.995C38.3975 79.0814 38.52 79.198 38.6005 79.3448C38.681 79.4904 38.7212 79.652 38.7212 79.8295C38.7212 79.9858 38.6934 80.1148 38.6378 80.2166C38.5833 80.3184 38.5111 80.3989 38.4212 80.4581C38.3324 80.5173 38.2359 80.5611 38.1317 80.5895V80.625C38.243 80.6321 38.3549 80.6712 38.4673 80.7422C38.5798 80.8132 38.6739 80.915 38.7496 81.0476C38.8254 81.1802 38.8633 81.3423 38.8633 81.5341C38.8633 81.7164 38.8219 81.8803 38.739 82.0259C38.6561 82.1715 38.5253 82.2869 38.3466 82.3722C38.1679 82.4574 37.9353 82.5 37.6488 82.5H36.3349ZM36.7752 82.1094H37.6488C37.9364 82.1094 38.1406 82.0537 38.2614 81.9425C38.3833 81.83 38.4442 81.6939 38.4442 81.5341C38.4442 81.411 38.4129 81.2973 38.3501 81.1932C38.2874 81.0878 38.198 81.0038 38.082 80.9411C37.966 80.8771 37.8287 80.8452 37.6701 80.8452H36.7752V82.1094ZM36.7752 80.4616H37.592C37.7246 80.4616 37.8441 80.4356 37.9506 80.3835C38.0584 80.3314 38.1436 80.258 38.2063 80.1634C38.2702 80.0687 38.3022 79.9574 38.3022 79.8295C38.3022 79.6697 38.2466 79.5342 38.1353 79.4229C38.024 79.3105 37.8477 79.2543 37.6062 79.2543H36.7752V80.4616ZM39.5868 78.8636H40.1124L41.3482 81.8821H41.3908L42.6266 78.8636H43.1522V82.5H42.7402V79.7372H42.7047L41.5684 82.5H41.1706L40.0343 79.7372H39.9988V82.5H39.5868V78.8636ZM44.4754 78.8636V82.5H44.0351V78.8636H44.4754ZM45.1594 79.2543V78.8636H47.8867V79.2543H46.7433V82.5H46.3029V79.2543H45.1594Z" fill="black"/>
<path d="M31.429 79.7727L31.2304 79.7962L31.2513 79.9727H31.429V79.7727ZM31.1697 79.3537L31.06 79.5209L31.1697 79.3537ZM30.1896 79.2827L30.1104 79.099L30.1098 79.0993L30.1896 79.2827ZM29.9091 79.4975L29.7483 79.3785L29.7473 79.3799L29.9091 79.4975ZM29.8789 80.0586L29.712 80.1689L29.7143 80.1721L29.8789 80.0586ZM30.06 80.2308L29.9535 80.4001L29.9555 80.4013L30.06 80.2308ZM30.2908 80.3427L30.2218 80.5304L30.2243 80.5313L30.2908 80.3427ZM30.5128 80.4119L30.5648 80.2188L30.5637 80.2185L30.5128 80.4119ZM30.8821 80.5114L30.8301 80.7045L30.8313 80.7048L30.8821 80.5114ZM31.1982 80.6143L31.1275 80.8015L31.1281 80.8017L31.1982 80.6143ZM31.5337 80.7937L31.4178 80.9567L31.4199 80.9581L31.5337 80.7937ZM31.8001 81.0813L31.9719 80.9789L31.9719 80.9789L31.8001 81.0813ZM31.7504 82.0455L31.5826 81.9365L31.582 81.9374L31.7504 82.0455ZM31.3029 82.4237L31.217 82.2431L31.2165 82.2433L31.3029 82.4237ZM29.9144 82.4379L29.8333 82.6207L29.8337 82.6209L29.9144 82.4379ZM29.467 82.0863L29.3044 82.2028L29.305 82.2036L29.467 82.0863ZM29.2841 81.5625V81.3625H29.0693L29.0846 81.5767L29.2841 81.5625ZM29.7386 81.5625L29.9379 81.5453L29.9221 81.3625H29.7386V81.5625ZM29.8771 81.9034L29.7281 82.0368L29.7299 82.0388L29.8771 81.9034ZM30.1861 82.1023L30.1196 82.2909L30.1218 82.2916L30.1861 82.1023ZM31.0437 82.0845L31.1191 82.2698L31.1205 82.2692L31.0437 82.0845ZM31.3615 81.8537L31.518 81.9782L31.5188 81.9773L31.3615 81.8537ZM31.3775 81.2109L31.5268 81.0779L31.3775 81.2109ZM31.1112 81.0263L31.0321 81.21L31.1112 81.0263ZM30.7543 80.902L30.6993 81.0943L30.7007 81.0947L30.7543 80.902ZM30.3068 80.7741L30.2516 80.9664L30.2519 80.9665L30.3068 80.7741ZM29.6321 80.4244L29.4971 80.572L29.4971 80.572L29.6321 80.4244ZM29.5487 79.2969L29.387 79.1791L29.3868 79.1793L29.5487 79.2969ZM29.9961 78.9418L30.0781 79.1242L30.0786 79.124L29.9961 78.9418ZM31.2514 78.94L31.1677 79.1216L31.1687 79.1221L31.2514 78.94ZM31.6847 79.2809L31.5237 79.3996L31.5243 79.4005L31.6847 79.2809ZM31.8551 79.7727V79.9727H32.0617L32.055 79.7663L31.8551 79.7727ZM31.6276 79.7492C31.5993 79.5106 31.4804 79.3183 31.2795 79.1865L31.06 79.5209C31.1621 79.5879 31.216 79.675 31.2304 79.7962L31.6276 79.7492ZM31.2795 79.1865C31.0889 79.0614 30.8629 79.0045 30.6122 79.0045V79.4045C30.8019 79.4045 30.9475 79.4471 31.06 79.5209L31.2795 79.1865ZM30.6122 79.0045C30.4299 79.0045 30.2611 79.034 30.1104 79.099L30.2688 79.4663C30.3596 79.4272 30.4725 79.4045 30.6122 79.4045V79.0045ZM30.1098 79.0993C29.963 79.1633 29.8396 79.2552 29.7483 79.3785L30.0698 79.6165C30.1135 79.5575 30.1772 79.5062 30.2695 79.466L30.1098 79.0993ZM29.7473 79.3799C29.6554 79.5063 29.6097 79.6513 29.6097 79.8082H30.0097C30.0097 79.7332 30.0302 79.6711 30.0708 79.6151L29.7473 79.3799ZM29.6097 79.8082C29.6097 79.9381 29.641 80.0614 29.7121 80.1689L30.0458 79.9483C30.0245 79.9161 30.0097 79.8725 30.0097 79.8082H29.6097ZM29.7143 80.1721C29.7776 80.264 29.8581 80.3401 29.9535 80.4001L30.1665 80.0615C30.1151 80.0292 30.0749 79.9905 30.0435 79.945L29.7143 80.1721ZM29.9555 80.4013C30.0401 80.4532 30.1289 80.4962 30.2218 80.5304L30.3599 80.155C30.2918 80.1299 30.2267 80.0984 30.1645 80.0603L29.9555 80.4013ZM30.2243 80.5313C30.3088 80.5611 30.3881 80.5859 30.4619 80.6053L30.5637 80.2185C30.5025 80.2024 30.4338 80.1811 30.3574 80.1541L30.2243 80.5313ZM30.4608 80.6051L30.8301 80.7045L30.9341 80.3182L30.5648 80.2188L30.4608 80.6051ZM30.8313 80.7048C30.9178 80.7275 31.0164 80.7595 31.1275 80.8015L31.2688 80.4272C31.1479 80.3816 31.0358 80.3449 30.9329 80.3179L30.8313 80.7048ZM31.1281 80.8017C31.2283 80.8391 31.3248 80.8905 31.4178 80.9567L31.6496 80.6307C31.5296 80.5453 31.4024 80.4772 31.2682 80.427L31.1281 80.8017ZM31.4199 80.9581C31.5031 81.0157 31.5725 81.0901 31.6283 81.1837L31.9719 80.9789C31.888 80.8382 31.7798 80.7208 31.6476 80.6292L31.4199 80.9581ZM31.6283 81.1837C31.6756 81.2631 31.7048 81.3695 31.7048 81.5128H32.1048C32.1048 81.3152 32.0643 81.1339 31.9719 80.9789L31.6283 81.1837ZM31.7048 81.5128C31.7048 81.6722 31.6637 81.8117 31.5826 81.9365L31.9181 82.1544C32.043 81.962 32.1048 81.7463 32.1048 81.5128H31.7048ZM31.582 81.9374C31.5033 82.06 31.3851 82.1631 31.217 82.2431L31.3889 82.6042C31.6137 82.4972 31.7938 82.3481 31.9187 82.1535L31.582 81.9374ZM31.2165 82.2433C31.0548 82.3207 30.8487 82.3639 30.5909 82.3639V82.7639C30.8918 82.7639 31.1604 82.7136 31.3893 82.604L31.2165 82.2433ZM30.5909 82.3639C30.3515 82.3639 30.1548 82.3253 29.9951 82.2549L29.8337 82.6209C30.0552 82.7185 30.3094 82.7639 30.5909 82.7639V82.3639ZM29.9955 82.255C29.8346 82.1836 29.7148 82.0875 29.6289 81.969L29.305 82.2036C29.4369 82.3857 29.6155 82.524 29.8333 82.6207L29.9955 82.255ZM29.6295 81.9698C29.545 81.8518 29.4954 81.7133 29.4836 81.5483L29.0846 81.5767C29.1012 81.8095 29.1735 82.0201 29.3044 82.2028L29.6295 81.9698ZM29.2841 81.7625H29.7386V81.3625H29.2841V81.7625ZM29.5394 81.5797C29.5544 81.7537 29.6147 81.9101 29.7281 82.0368L30.0262 81.7701C29.9786 81.7168 29.9466 81.6459 29.9379 81.5453L29.5394 81.5797ZM29.7299 82.0388C29.8358 82.1538 29.9674 82.2373 30.1196 82.2909L30.2525 81.9136C30.1562 81.8797 30.0818 81.8305 30.0243 81.768L29.7299 82.0388ZM30.1218 82.2916C30.2697 82.3419 30.4266 82.3662 30.5909 82.3662V81.9662C30.4664 81.9662 30.3534 81.9479 30.2504 81.9129L30.1218 82.2916ZM30.5909 82.3662C30.7807 82.3662 30.9578 82.3354 31.1191 82.2698L30.9683 81.8993C30.862 81.9425 30.7373 81.9662 30.5909 81.9662V82.3662ZM31.1205 82.2692C31.2806 82.2026 31.4158 82.1067 31.518 81.9782L31.205 81.7292C31.1509 81.7971 31.0742 81.8552 30.9669 81.8999L31.1205 82.2692ZM31.5188 81.9773C31.626 81.8408 31.6787 81.6807 31.6787 81.5057H31.2787C31.2787 81.5958 31.2533 81.6677 31.2042 81.7301L31.5188 81.9773ZM31.6787 81.5057C31.6787 81.3457 31.6329 81.197 31.5268 81.0779L31.2281 81.344C31.257 81.3763 31.2787 81.4242 31.2787 81.5057H31.6787ZM31.5268 81.0779C31.4367 80.9767 31.3223 80.8994 31.1902 80.8426L31.0321 81.21C31.1202 81.2479 31.1833 81.2936 31.2281 81.344L31.5268 81.0779ZM31.1902 80.8426C31.071 80.7913 30.9434 80.747 30.8078 80.7093L30.7007 81.0947C30.8208 81.128 30.9312 81.1666 31.0321 81.21L31.1902 80.8426ZM30.8092 80.7097L30.3618 80.5818L30.2519 80.9665L30.6993 81.0943L30.8092 80.7097ZM30.3621 80.5819C30.0986 80.5062 29.904 80.4019 29.7671 80.2768L29.4971 80.572C29.6917 80.7498 29.9468 80.8788 30.2516 80.9664L30.3621 80.5819ZM29.7671 80.2768C29.6468 80.1668 29.5835 80.0241 29.5835 79.8295H29.1835C29.1835 80.125 29.2859 80.3789 29.4971 80.572L29.7671 80.2768ZM29.5835 79.8295C29.5835 79.6643 29.6274 79.5288 29.7105 79.4144L29.3868 79.1793C29.2497 79.368 29.1835 79.5876 29.1835 79.8295H29.5835ZM29.7103 79.4147C29.7994 79.2924 29.92 79.1952 30.0781 79.1242L29.9141 78.7593C29.6982 78.8564 29.5205 78.9959 29.387 79.1791L29.7103 79.4147ZM30.0786 79.124C30.2379 79.0518 30.4194 79.0139 30.6264 79.0139V78.6139C30.3695 78.6139 30.1307 78.6612 29.9136 78.7596L30.0786 79.124ZM30.6264 79.0139C30.8367 79.0139 31.0157 79.0515 31.1677 79.1216L31.3352 78.7584C31.1226 78.6603 30.8849 78.6139 30.6264 78.6139V79.0139ZM31.1687 79.1221C31.3236 79.1925 31.4397 79.2857 31.5237 79.3996L31.8456 79.1622C31.7166 78.9873 31.5438 78.8532 31.3342 78.7579L31.1687 79.1221ZM31.5243 79.4005C31.6071 79.5115 31.6506 79.6357 31.6552 79.7792L32.055 79.7663C32.0478 79.5428 31.9776 79.3392 31.845 79.1613L31.5243 79.4005ZM31.8551 79.5727H31.429V79.9727H31.8551V79.5727ZM35.0152 78.8636V78.6636H34.8152V78.8636H35.0152ZM35.4555 78.8636H35.6555V78.6636H35.4555V78.8636ZM35.2797 81.9371L35.1082 81.8342L35.1081 81.8346L35.2797 81.9371ZM34.7879 82.397L34.8809 82.5741L34.8817 82.5737L34.7879 82.397ZM33.2964 82.397L33.2027 82.5737L33.2034 82.5741L33.2964 82.397ZM32.8028 81.9371L32.6309 82.0393L32.6316 82.0405L32.8028 81.9371ZM32.6288 78.8636V78.6636H32.4288V78.8636H32.6288ZM33.0692 78.8636H33.2692V78.6636H33.0692V78.8636ZM33.1863 81.7099L33.0121 81.8081L33.0125 81.8088L33.1863 81.7099ZM33.5202 82.0348L33.4239 82.2101L33.4256 82.211L33.5202 82.0348ZM34.5642 82.0348L34.6588 82.211L34.6599 82.2104L34.5642 82.0348ZM34.898 81.7099L34.7238 81.6116L34.7235 81.6121L34.898 81.7099ZM35.0152 79.0636H35.4555V78.6636H35.0152V79.0636ZM35.2555 78.8636V81.2713H35.6555V78.8636H35.2555ZM35.2555 81.2713C35.2555 81.4871 35.2051 81.6728 35.1082 81.8342L35.4512 82.04C35.5888 81.8108 35.6555 81.5527 35.6555 81.2713H35.2555ZM35.1081 81.8346C35.0119 81.9954 34.8758 82.1239 34.6941 82.2204L34.8817 82.5737C35.1238 82.4452 35.3155 82.2671 35.4514 82.0397L35.1081 81.8346ZM34.6949 82.2199C34.5167 82.3135 34.3012 82.3639 34.0422 82.3639V82.7639C34.3536 82.7639 34.6353 82.7031 34.8809 82.5741L34.6949 82.2199ZM34.0422 82.3639C33.7831 82.3639 33.5676 82.3135 33.3894 82.2199L33.2034 82.5741C33.449 82.7031 33.7307 82.7639 34.0422 82.7639V82.3639ZM33.3902 82.2204C33.2084 82.1239 33.0714 81.9951 32.974 81.8338L32.6316 82.0405C32.7686 82.2674 32.9607 82.4453 33.2027 82.5737L33.3902 82.2204ZM32.9748 81.835C32.8788 81.6735 32.8288 81.4874 32.8288 81.2713H32.4288C32.4288 81.5523 32.4948 81.8102 32.6309 82.0393L32.9748 81.835ZM32.8288 81.2713V78.8636H32.4288V81.2713H32.8288ZM32.6288 79.0636H33.0692V78.6636H32.6288V79.0636ZM32.8692 78.8636V81.2358H33.2692V78.8636H32.8692ZM32.8692 81.2358C32.8692 81.4437 32.9152 81.6363 33.0122 81.8081L33.3605 81.6116C33.3012 81.5065 33.2692 81.383 33.2692 81.2358H32.8692ZM33.0125 81.8088C33.1097 81.9797 33.2485 82.1138 33.4239 82.2101L33.6164 81.8595C33.503 81.7972 33.4192 81.7147 33.3602 81.611L33.0125 81.8088ZM33.4256 82.211C33.6061 82.3079 33.8141 82.352 34.0422 82.352V81.952C33.8654 81.952 33.7254 81.918 33.6147 81.8586L33.4256 82.211ZM34.0422 82.352C34.2702 82.352 34.4782 82.3079 34.6588 82.211L34.4696 81.8586C34.359 81.918 34.2189 81.952 34.0422 81.952V82.352ZM34.6599 82.2104C34.8367 82.1141 34.9761 81.9796 35.0725 81.8076L34.7235 81.6121C34.666 81.7148 34.5829 81.7969 34.4685 81.8592L34.6599 82.2104ZM35.0722 81.8081C35.1691 81.6363 35.2152 81.4437 35.2152 81.2358H34.8152C34.8152 81.383 34.7831 81.5065 34.7238 81.6116L35.0722 81.8081ZM35.2152 81.2358V78.8636H34.8152V81.2358H35.2152ZM36.3349 82.5H36.1349V82.7H36.3349V82.5ZM36.3349 78.8636V78.6636H36.1349V78.8636H36.3349ZM38.233 78.995L38.139 79.1716L38.14 79.1721L38.233 78.995ZM38.6005 79.3448L38.4251 79.441L38.4255 79.4416L38.6005 79.3448ZM38.6378 80.2166L38.4623 80.1207L38.4614 80.1223L38.6378 80.2166ZM38.4212 80.4581L38.3112 80.291L38.3102 80.2917L38.4212 80.4581ZM38.1317 80.5895L38.0791 80.3965L37.9317 80.4367V80.5895H38.1317ZM38.1317 80.625H37.9317V80.8126L38.119 80.8246L38.1317 80.625ZM38.4673 80.7422L38.3605 80.9113V80.9113L38.4673 80.7422ZM38.739 82.0259L38.9128 82.1248L38.739 82.0259ZM38.3466 82.3722L38.2605 82.1916L38.3466 82.3722ZM36.7752 82.1094H36.5752V82.3094H36.7752V82.1094ZM38.2614 81.9425L38.3969 82.0895L38.397 82.0895L38.2614 81.9425ZM38.3501 81.1932L38.1783 81.2955L38.1788 81.2964L38.3501 81.1932ZM38.082 80.9411L37.9855 81.1162L37.9869 81.117L38.082 80.9411ZM36.7752 80.8452V80.6452H36.5752V80.8452H36.7752ZM36.7752 80.4616H36.5752V80.6616H36.7752V80.4616ZM37.9506 80.3835L37.8636 80.2035L37.8628 80.2038L37.9506 80.3835ZM38.2063 80.1634L38.0405 80.0515L38.0396 80.0529L38.2063 80.1634ZM38.1353 79.4229L37.9931 79.5636L37.9939 79.5644L38.1353 79.4229ZM36.7752 79.2543V79.0543H36.5752V79.2543H36.7752ZM36.5349 82.5V78.8636H36.1349V82.5H36.5349ZM36.3349 79.0636H37.6062V78.6636H36.3349V79.0636ZM37.6062 79.0636C37.8379 79.0636 38.0119 79.1039 38.139 79.1716L38.3269 78.8185C38.125 78.711 37.881 78.6636 37.6062 78.6636V79.0636ZM38.14 79.1721C38.2737 79.2423 38.3656 79.3324 38.4251 79.441L38.7759 79.2486C38.6744 79.0636 38.5213 78.9206 38.3259 78.818L38.14 79.1721ZM38.4255 79.4416C38.4885 79.5556 38.5212 79.6835 38.5212 79.8295H38.9212C38.9212 79.6205 38.8735 79.4253 38.7755 79.248L38.4255 79.4416ZM38.5212 79.8295C38.5212 79.9634 38.4972 80.0568 38.4623 80.1207L38.8133 80.3125C38.8896 80.1729 38.9212 80.0082 38.9212 79.8295H38.5212ZM38.4614 80.1223C38.4215 80.1969 38.3713 80.2515 38.3112 80.291L38.5311 80.6252C38.6509 80.5463 38.7451 80.44 38.8141 80.3109L38.4614 80.1223ZM38.3102 80.2917C38.2395 80.3388 38.1628 80.3737 38.0791 80.3965L38.1844 80.7824C38.309 80.7484 38.4252 80.6958 38.5321 80.6245L38.3102 80.2917ZM37.9317 80.5895V80.625H38.3317V80.5895H37.9317ZM38.119 80.8246C38.191 80.8292 38.2709 80.8547 38.3605 80.9113L38.5741 80.5731C38.4388 80.4876 38.2951 80.435 38.1445 80.4254L38.119 80.8246ZM38.3605 80.9113C38.4415 80.9624 38.5141 81.0384 38.576 81.1468L38.9233 80.9484C38.8337 80.7916 38.7181 80.664 38.5741 80.5731L38.3605 80.9113ZM38.576 81.1468C38.6306 81.2424 38.6633 81.3684 38.6633 81.5341H39.0633C39.0633 81.3163 39.0202 81.118 38.9233 80.9484L38.576 81.1468ZM38.6633 81.5341C38.6633 81.6848 38.6294 81.8142 38.5652 81.927L38.9128 82.1248C39.0143 81.9465 39.0633 81.7479 39.0633 81.5341H38.6633ZM38.5652 81.927C38.506 82.031 38.4092 82.1207 38.2605 82.1916L38.4327 82.5527C38.6414 82.4531 38.8063 82.3121 38.9128 82.1248L38.5652 81.927ZM38.2605 82.1916C38.1179 82.2596 37.9178 82.3 37.6488 82.3V82.7C37.9527 82.7 38.2178 82.6551 38.4327 82.5527L38.2605 82.1916ZM37.6488 82.3H36.3349V82.7H37.6488V82.3ZM36.7752 82.3094H37.6488V81.9094H36.7752V82.3094ZM37.6488 82.3094C37.9521 82.3094 38.2199 82.2526 38.3969 82.0895L38.1258 81.7954C38.0613 81.8549 37.9207 81.9094 37.6488 81.9094V82.3094ZM38.397 82.0895C38.5582 81.9408 38.6442 81.7521 38.6442 81.5341H38.2442C38.2442 81.6357 38.2084 81.7192 38.1258 81.7955L38.397 82.0895ZM38.6442 81.5341C38.6442 81.3751 38.6032 81.2257 38.5215 81.09L38.1788 81.2964C38.2225 81.369 38.2442 81.4469 38.2442 81.5341H38.6442ZM38.522 81.0909C38.4394 80.9522 38.3224 80.8437 38.1772 80.7651L37.9869 81.117C38.0736 81.1639 38.1354 81.2235 38.1783 81.2955L38.522 81.0909ZM38.1786 80.7659C38.0277 80.6827 37.8558 80.6452 37.6701 80.6452V81.0452C37.8016 81.0452 37.9044 81.0715 37.9855 81.1162L38.1786 80.7659ZM37.6701 80.6452H36.7752V81.0452H37.6701V80.6452ZM36.5752 80.8452V82.1094H36.9752V80.8452H36.5752ZM36.7752 80.6616H37.592V80.2616H36.7752V80.6616ZM37.592 80.6616C37.7514 80.6616 37.9015 80.6302 38.0385 80.5632L37.8628 80.2038C37.7867 80.2411 37.6977 80.2616 37.592 80.2616V80.6616ZM38.0377 80.5636C38.1759 80.4967 38.2894 80.4001 38.3731 80.2738L38.0396 80.0529C37.9978 80.116 37.9408 80.1661 37.8636 80.2035L38.0377 80.5636ZM38.3721 80.2752C38.4609 80.1436 38.5022 79.9923 38.5022 79.8295H38.1022C38.1022 79.9224 38.0796 79.9937 38.0406 80.0515L38.3721 80.2752ZM38.5022 79.8295C38.5022 79.6176 38.4261 79.4309 38.2767 79.2815L37.9939 79.5644C38.067 79.6375 38.1022 79.7219 38.1022 79.8295H38.5022ZM38.2775 79.2823C38.1129 79.1159 37.8734 79.0543 37.6062 79.0543V79.4543C37.8219 79.4543 37.9352 79.5051 37.9931 79.5636L38.2775 79.2823ZM37.6062 79.0543H36.7752V79.4543H37.6062V79.0543ZM36.5752 79.2543V80.4616H36.9752V79.2543H36.5752ZM39.5868 78.8636V78.6636H39.3868V78.8636H39.5868ZM40.1124 78.8636L40.2975 78.7879L40.2466 78.6636H40.1124V78.8636ZM41.3482 81.8821L41.1631 81.9579L41.214 82.0821H41.3482V81.8821ZM41.3908 81.8821V82.0821H41.525L41.5759 81.9579L41.3908 81.8821ZM42.6266 78.8636V78.6636H42.4924L42.4415 78.7879L42.6266 78.8636ZM43.1522 78.8636H43.3522V78.6636H43.1522V78.8636ZM43.1522 82.5V82.7H43.3522V82.5H43.1522ZM42.7402 82.5H42.5402V82.7H42.7402V82.5ZM42.7402 79.7372H42.9402V79.5372H42.7402V79.7372ZM42.7047 79.7372V79.5372H42.5707L42.5198 79.6611L42.7047 79.7372ZM41.5684 82.5V82.7H41.7024L41.7533 82.5761L41.5684 82.5ZM41.1706 82.5L40.9857 82.5761L41.0366 82.7H41.1706V82.5ZM40.0343 79.7372L40.2192 79.6611L40.1683 79.5372H40.0343V79.7372ZM39.9988 79.7372V79.5372H39.7988V79.7372H39.9988ZM39.9988 82.5V82.7H40.1988V82.5H39.9988ZM39.5868 82.5H39.3868V82.7H39.5868V82.5ZM39.5868 79.0636H40.1124V78.6636H39.5868V79.0636ZM39.9273 78.9394L41.1631 81.9579L41.5333 81.8063L40.2975 78.7879L39.9273 78.9394ZM41.3482 82.0821H41.3908V81.6821H41.3482V82.0821ZM41.5759 81.9579L42.8117 78.9394L42.4415 78.7879L41.2057 81.8063L41.5759 81.9579ZM42.6266 79.0636H43.1522V78.6636H42.6266V79.0636ZM42.9522 78.8636V82.5H43.3522V78.8636H42.9522ZM43.1522 82.3H42.7402V82.7H43.1522V82.3ZM42.9402 82.5V79.7372H42.5402V82.5H42.9402ZM42.7402 79.5372H42.7047V79.9372H42.7402V79.5372ZM42.5198 79.6611L41.3834 82.4239L41.7533 82.5761L42.8897 79.8133L42.5198 79.6611ZM41.5684 82.3H41.1706V82.7H41.5684V82.3ZM41.3556 82.4239L40.2192 79.6611L39.8493 79.8133L40.9857 82.5761L41.3556 82.4239ZM40.0343 79.5372H39.9988V79.9372H40.0343V79.5372ZM39.7988 79.7372V82.5H40.1988V79.7372H39.7988ZM39.9988 82.3H39.5868V82.7H39.9988V82.3ZM39.7868 82.5V78.8636H39.3868V82.5H39.7868ZM44.4754 78.8636H44.6754V78.6636H44.4754V78.8636ZM44.4754 82.5V82.7H44.6754V82.5H44.4754ZM44.0351 82.5H43.8351V82.7H44.0351V82.5ZM44.0351 78.8636V78.6636H43.8351V78.8636H44.0351ZM44.2754 78.8636V82.5H44.6754V78.8636H44.2754ZM44.4754 82.3H44.0351V82.7H44.4754V82.3ZM44.2351 82.5V78.8636H43.8351V82.5H44.2351ZM44.0351 79.0636H44.4754V78.6636H44.0351V79.0636ZM45.1594 79.2543H44.9594V79.4543H45.1594V79.2543ZM45.1594 78.8636V78.6636H44.9594V78.8636H45.1594ZM47.8867 78.8636H48.0867V78.6636H47.8867V78.8636ZM47.8867 79.2543V79.4543H48.0867V79.2543H47.8867ZM46.7433 79.2543V79.0543H46.5433V79.2543H46.7433ZM46.7433 82.5V82.7H46.9433V82.5H46.7433ZM46.3029 82.5H46.1029V82.7H46.3029V82.5ZM46.3029 79.2543H46.5029V79.0543H46.3029V79.2543ZM45.3594 79.2543V78.8636H44.9594V79.2543H45.3594ZM45.1594 79.0636H47.8867V78.6636H45.1594V79.0636ZM47.6867 78.8636V79.2543H48.0867V78.8636H47.6867ZM47.8867 79.0543H46.7433V79.4543H47.8867V79.0543ZM46.5433 79.2543V82.5H46.9433V79.2543H46.5433ZM46.7433 82.3H46.3029V82.7H46.7433V82.3ZM46.5029 82.5V79.2543H46.1029V82.5H46.5029ZM46.3029 79.0543H45.1594V79.4543H46.3029V79.0543Z" fill="black" mask="url(#path-49-outside-1_3_123)"/>
</svg>
